<svg id="Capa_1" enable-background="new 0 0 512.009 512.009" height="512" viewBox="0 0 512.009 512.009" width="512" xmlns="http://www.w3.org/2000/svg"><g><g><g><g fill="#e4996d"><path d="m188.614 34c.005-.004.005-.004 0 0z"/><path d="m188.598 34.013c.008-.006.013-.011.016-.013-.004.003-.01.008-.016.013z"/><path d="m188.598 34.013c-.042.035-.056.046-.013.011.005-.004.009-.007.013-.011z"/><path d="m188.553 34.051c.002-.002.004-.003.006-.005-.052.042-.035.029-.006.005z"/><path d="m188.559 34.046c-.002.002-.004.003-.006.005.069-.057.006-.005.006-.005z"/><path d="m256.004 22.571c-1.55 0-3.095.02-4.636.054-40.812 41.846-60.331 97.833-38.53 163.439 64.827 51.097 145.601 67.036 246.473 38.659-.622-111.758-91.407-202.152-203.307-202.152z"/></g><path d="m251.369 22.625c-21.966.491-43.064 4.459-62.775 11.392-23.729 19.519-45.298 37.262-107.814 88.687-17.671 29.94-27.882 64.791-28.083 102.02 56.573 4.168 110.339-6.657 160.141-38.659-3.013-61.038 11.021-118.359 38.531-163.44z" fill="#dc8659"/><path d="m417.986 469.588c-9.885-46.093-38.971-84.95-78.064-109.651-55.84-21.574-111.787-21.119-167.835 0-39.101 24.705-68.181 63.568-78.064 109.651-3.855 17.972 9.84 34.92 28.213 34.92h267.535c18.375.001 32.07-16.947 28.215-34.92z" fill="#78d57c"/><path d="m104.284 181.159c51.567 9.086 53.073 79.369 0 89.46-27.642 3.968-52.305-17.917-51.587-45.894.688-26.992 24.832-47.407 51.587-43.566z" fill="#ffc0ad"/><path d="m459.312 224.724c.719 28.032-23.99 49.856-51.587 45.894-52.802-10.342-54.579-80.875 0-89.46 26.733-3.837 50.898 16.55 51.587 43.566z" fill="#ffcebf"/><path d="m256.004 384.024s-15.301 38.254-49.148 57.893c-13.474 7.821-30.613.08-34.077-15.101-5.06-22.237-5.185-44.917-.693-66.879 27.911-10.444 56.388.446 83.918 24.087z" fill="#d3ecff"/><path d="m339.922 359.938c4.495 21.973 4.365 44.652-.693 66.879-3.464 15.181-20.603 22.922-34.077 15.101-33.846-19.639-49.148-57.893-49.148-57.893 18.68-30.627 47.909-38.286 83.918-24.087z" fill="#eaf6ff"/><path d="m177.127 28.535-24.238-6.496c-26.417 36.806-39.714 79.629-42.089 127.462 9.578.984 19.659-2.038 27.43-9.81l54.168-54.168c18.519-18.529 10.066-50.185-15.271-56.988z" fill="#f5d34b"/><path d="m103.13 8.705 4.398 1.175c13.006 28.782 7.888 65.285-29.428 102.803l-16.687-62.26c-6.788-25.322 16.395-48.505 41.717-41.718z" fill="#f5d34b"/><path d="m107.527 9.88 45.362 12.159c-1.807 32.039-10.954 78.124-42.089 127.462-13.283-1.345-25.613-10.382-29.559-25.081-4.307-16.085-2.821-10.537-3.143-11.737 20.473-39.539 27.572-75.804 29.429-102.803z" fill="#b089ef"/><path d="m414.14 225.889c0-50.083-23.475-96.298-62.572-125.987-11.788 43.086-67.421 77.406-138.73 86.162-27.139 76.112-11.607 148.758 72.772 195.174 73.21-13.872 128.53-78.136 128.53-155.349z" fill="#ffdfcf"/><path d="m212.838 186.064c-11.593 1.424-23.601 2.173-35.902 2.173-25.653 0-72.451-7.761-72.652-7.078-19.866 67.476 7.103 140.707 67.802 178.779 34.286 21.517 74.832 28.632 113.523 21.301-43.811-54.832-69.325-125.388-72.771-195.175z" fill="#ffcebf"/><path d="m335.885 231.662c16.276 0 29.469 10.502 29.469 23.464s-13.193 23.474-29.469 23.474c-16.285 0-29.478-10.512-29.478-23.474s13.193-23.464 29.478-23.464z" fill="#fd9faa"/><path d="m176.123 231.662c16.286 0 29.479 10.502 29.479 23.464s-13.193 23.474-29.479 23.474c-16.275 0-29.468-10.512-29.468-23.474s13.193-23.464 29.468-23.464z" fill="#fd9faa"/></g><g><path d="m256.004 15.071c-22.728 0-45.032 3.592-66.361 10.668-3.244-1.92-6.785-3.431-10.575-4.449-.133-.035-74.153-19.871-73.998-19.83-30.883-8.28-59.193 19.976-50.903 50.905 4.211 15.714-10.226-38.162 18.564 69.273-18.028 31.636-27.544 67.609-27.544 104.251 0 29.368 24.134 53.276 53.755 52.669 4.321 12.876 10.241 25.295 17.736 36.948 2.24 3.484 6.881 4.492 10.364 2.251 3.484-2.24 4.492-6.881 2.251-10.364-22.578-35.108-29.538-77.834-19.44-118.145 17.995 2.334 47.303 6.492 67.081 6.492 41.879 0 81.293-8.277 113.98-23.936 3.735-1.79 5.313-6.269 3.523-10.004-1.79-3.736-6.272-5.313-10.004-3.523-30.239 14.486-68.417 22.464-107.5 22.464-20.948 0-57.67-5.495-68.504-6.789-15.939-1.895-30.49.175-43.958 11.223 3.34-15.766 8.613-31.07 15.72-45.547 14.191 20.195 44.418 24.294 63.343 5.37l54.169-54.169c14.955-14.966 15.749-37.374 4.634-53.306 17.365-4.943 35.365-7.448 53.666-7.448 94.021 0 172.767 66.611 191.551 155.117-9.759-8.012-22.03-12.217-34.522-11.959-10.578-31.618-30.212-59.011-56.933-79.303-4.226-3.207-10.367-1.13-11.77 3.993-4.222 15.424-15.09 30.297-31.431 43.01-3.27 2.544-3.857 7.256-1.313 10.525 2.544 3.27 7.256 3.856 10.524 1.314 15.298-11.902 26.522-25.688 32.944-40.349 43.814 38.358 62.057 99.767 45.476 156.082-10.379 35.254-33.317 65.471-64.592 85.085-57.513 36.09-134.933 29.547-185.664-20.363-2.951-2.905-7.7-2.868-10.605.086-2.905 2.952-2.867 7.701.086 10.605 5.88 5.786 12.231 11.138 18.947 16.013-35.768 25.623-62.443 63.475-72.011 108.089-4.869 22.696 12.453 43.993 35.547 43.993h267.535c23.125 0 40.409-21.328 35.547-43.993-9.528-44.429-36.074-82.343-71.999-108.081 27.923-20.277 48.806-48.685 59.757-81.377 29.541.601 53.745-23.23 53.745-52.669 0-115.645-93.992-210.822-210.818-210.822zm-156.468.493c-2.428 25.623-8.959 50.905-19.482 75.451-6.565-24.497-10.462-39.039-11.398-42.534-5.136-19.162 11.732-36.804 30.88-32.917zm-4.89 172.789c-5.792 24.911-5.695 50.582.008 75.075-19.563-1.676-34.467-18.066-34.467-37.54 0-19.478 14.896-35.842 34.459-37.535zm-6.161-65.877-2.404-8.972c15.324-30.325 24.766-61.911 28.126-94.065l30.769 8.245c-2.381 28.592-11.162 69.533-37.864 113.522-9.195-2.525-16.153-9.511-18.627-18.73zm98.61-42.255c-56.303 55.546-54.284 55.998-61.759 59.496 23.235-41.546 31.699-80.024 34.349-108.091l15.496 4.153c19.737 5.299 26.379 29.968 11.914 44.442zm144.821 344.927c-2.355 10.323-13.94 15.538-23.001 10.281-20.925-12.142-34.417-32.303-41.057-44.316 23.303-1.655 45.921-8.209 66.466-19.256 2.391 17.822 1.596 35.702-2.408 53.291zm-154.232-53.291c20.514 11.024 43.144 17.577 66.472 19.246-6.638 12.011-20.132 32.181-41.064 44.328-9.048 5.25-20.643.049-22.999-10.278-4.004-17.593-4.799-35.474-2.409-53.296zm232.969 99.305c2.855 13.308-7.287 25.847-20.881 25.847h-20.844v-22.621c0-4.143-3.357-7.5-7.5-7.5-4.142 0-7.5 3.357-7.5 7.5v22.621h-195.847v-22.621c0-4.143-3.357-7.5-7.5-7.5s-7.5 3.357-7.5 7.5v22.621h-20.844c-13.61 0-23.732-12.555-20.881-25.847 7.942-37.033 29.739-70.888 60.729-95.034-1.681 17.519-.553 35.061 3.382 52.357 4.595 20.132 27.302 30.284 45.153 19.92 22.767-13.211 37.512-33.958 45.384-47.682 7.871 13.724 22.617 34.471 45.383 47.681 17.782 10.323 40.537.31 45.155-19.923 3.939-17.309 5.064-34.868 3.377-52.404 31.323 24.213 52.66 57.441 60.734 95.085zm6.716-207.735c5.764-24.752 5.744-50.325-.03-75.075 19.617 1.687 34.483 18.091 34.483 37.537 0 19.509-14.934 35.857-34.453 37.538z"/><path d="m200.802 232.536v-12.049c0-4.142-3.357-7.5-7.5-7.5s-7.5 3.358-7.5 7.5v12.049c0 4.142 3.357 7.5 7.5 7.5s7.5-3.358 7.5-7.5z"/><path d="m326.206 232.536v-12.049c0-4.142-3.357-7.5-7.5-7.5s-7.5 3.358-7.5 7.5v12.049c0 4.142 3.357 7.5 7.5 7.5s7.5-3.358 7.5-7.5z"/><path d="m256.005 247.204c8.513 0 16.599-3.685 22.185-10.109 2.719-3.126 2.388-7.863-.738-10.581-3.124-2.717-7.862-2.387-10.58.738-2.736 3.147-6.697 4.952-10.866 4.952-4.17 0-8.131-1.805-10.868-4.952-2.717-3.126-7.454-3.456-10.581-.738-3.125 2.718-3.456 7.455-.737 10.581 5.586 6.424 13.672 10.109 22.185 10.109z"/><path d="m256.004 436.766c-4.177.019-7.5 3.391-7.5 7.502 0 4.088 3.328 7.5 7.5 7.5 4.219 0 7.5-3.45 7.5-7.5 0-4.226-3.472-7.519-7.5-7.502z"/><path d="m256.004 466.887c-4.156.018-7.5 3.349-7.5 7.502 0 4.185 3.415 7.5 7.5 7.5 4.01 0 7.5-3.246 7.5-7.5 0-4.26-3.506-7.52-7.5-7.502z"/></g></g></g></svg>