<svg width="512" height="512" viewBox="0 0 512 512" fill="none" xmlns="http://www.w3.org/2000/svg">
<path d="M106.668 138.666H181.335V245.333H74.668V170.666C74.668 162.179 78.0394 154.04 84.0406 148.039C90.0417 142.037 98.181 138.666 106.668 138.666Z" fill="#444444"/>
<path d="M74.668 266.666H181.335V373.333H106.668C98.181 373.333 90.0417 369.961 84.0406 363.96C78.0394 357.959 74.668 349.82 74.668 341.333V266.666Z" fill="#444444"/>
<path opacity="0.3" d="M309.335 138.666H202.668V373.333H309.335V138.666Z" fill="#444444"/>
<path d="M437.335 170.666V245.333H330.668V138.666H405.335C413.822 138.666 421.961 142.037 427.962 148.039C433.963 154.04 437.335 162.179 437.335 170.666Z" fill="#444444"/>
<path d="M330.668 266.666H437.335V341.333C437.335 349.82 433.963 357.959 427.962 363.96C421.961 369.961 413.822 373.333 405.335 373.333H330.668V266.666Z" fill="#444444"/>
</svg>
