<svg width="512" height="512" viewBox="0 0 512 512" fill="none" xmlns="http://www.w3.org/2000/svg">
<path d="M112 165.334V384.001C112 388.244 113.686 392.314 116.686 395.314C119.687 398.315 123.757 400.001 128 400.001C132.243 400.001 136.313 398.315 139.314 395.314C142.314 392.314 144 388.244 144 384.001V367.361L176.213 384.001V426.667C176.213 430.911 177.899 434.98 180.9 437.981C183.9 440.982 187.97 442.667 192.213 442.667C196.457 442.667 200.526 440.982 203.527 437.981C206.528 434.98 208.213 430.911 208.213 426.667V399.361L240.213 415.361V448.001C240.213 452.244 241.899 456.314 244.9 459.314C247.9 462.315 251.97 464.001 256.213 464.001C260.457 464.001 264.526 462.315 267.527 459.314C270.528 456.314 272.213 452.244 272.213 448.001V415.361L304.213 399.361V426.667C304.213 430.911 305.899 434.98 308.9 437.981C311.9 440.982 315.97 442.667 320.213 442.667C324.457 442.667 328.526 440.982 331.527 437.981C334.528 434.98 336.213 430.911 336.213 426.667V384.001L368.427 368.001V384.001C368.427 388.244 370.112 392.314 373.113 395.314C376.114 398.315 380.183 400.001 384.427 400.001C388.67 400.001 392.74 398.315 395.74 395.314C398.741 392.314 400.427 388.244 400.427 384.001V165.334H112ZM321.92 285.654L270.293 316.801L261.12 325.974C252.463 334.631 240.722 339.494 228.48 339.494C216.238 339.494 204.497 334.631 195.84 325.974C187.183 317.317 182.32 305.576 182.32 293.334C182.32 281.092 187.183 269.351 195.84 260.694L205.013 251.307L235.947 199.681C238.153 196.031 241.719 193.408 245.86 192.388C247.91 191.883 250.04 191.786 252.128 192.104C254.215 192.422 256.22 193.148 258.027 194.241C259.834 195.333 261.408 196.771 262.659 198.472C263.91 200.173 264.814 202.104 265.32 204.154C265.825 206.204 265.921 208.334 265.603 210.422C265.285 212.509 264.559 214.514 263.467 216.321L237.867 258.987L239.147 260.267L270.507 228.907C271.971 227.335 273.738 226.074 275.701 225.2C277.663 224.325 279.782 223.855 281.93 223.817C284.079 223.779 286.212 224.175 288.205 224.979C290.197 225.784 292.007 226.982 293.526 228.501C295.045 230.02 296.243 231.83 297.048 233.823C297.853 235.815 298.248 237.949 298.21 240.097C298.172 242.245 297.702 244.364 296.827 246.327C295.953 248.289 294.692 250.056 293.12 251.521L261.76 282.881L262.827 284.161L305.493 258.561C307.287 257.245 309.335 256.318 311.506 255.838C313.678 255.359 315.926 255.337 318.107 255.775C320.287 256.213 322.353 257.101 324.171 258.382C325.989 259.663 327.521 261.309 328.667 263.214C329.813 265.12 330.55 267.244 330.83 269.451C331.109 271.657 330.926 273.898 330.291 276.029C329.656 278.161 328.584 280.137 327.142 281.831C325.701 283.525 323.922 284.899 321.92 285.867V285.654Z" fill="#444444"/>
<path opacity="0.3" d="M327.467 263.68C325.266 260.233 321.829 257.76 317.862 256.768C313.894 255.776 309.697 256.341 306.134 258.347L263.467 283.947L262.4 282.667L293.76 251.307C295.332 249.842 296.593 248.076 297.468 246.113C298.342 244.15 298.812 242.032 298.85 239.883C298.888 237.735 298.493 235.601 297.688 233.609C296.883 231.617 295.686 229.807 294.166 228.287C292.647 226.768 290.837 225.57 288.845 224.766C286.853 223.961 284.719 223.566 282.57 223.604C280.422 223.641 278.303 224.112 276.341 224.986C274.378 225.861 272.612 227.122 271.147 228.694L239.787 260.054L238.507 258.774L264.107 216.107C266.314 212.458 266.98 208.081 265.96 203.94C264.94 199.799 262.316 196.233 258.667 194.027C255.018 191.82 250.641 191.154 246.5 192.174C242.359 193.194 238.794 195.818 236.587 199.467L205.014 251.307L195.84 260.694C187.184 269.35 182.32 281.091 182.32 293.334C182.32 305.576 187.184 317.317 195.84 325.974C204.497 334.63 216.238 339.493 228.48 339.493C240.723 339.493 252.464 334.63 261.12 325.974L270.294 316.8L321.92 285.654C323.73 284.577 325.309 283.155 326.568 281.467C327.826 279.779 328.739 277.859 329.254 275.818C329.77 273.777 329.877 271.654 329.57 269.571C329.264 267.488 328.549 265.486 327.467 263.68ZM218.454 303.36C216.01 300.719 214.652 297.252 214.652 293.654C214.652 290.055 216.01 286.589 218.454 283.947L238.507 304C235.75 306.548 232.101 307.91 228.349 307.79C224.597 307.67 221.042 306.079 218.454 303.36Z" fill="#444444"/>
<path opacity="0.3" d="M448 90.6667H400V85.3333C399.944 75.4492 395.993 65.9858 389.003 58.9966C382.014 52.0073 372.551 48.056 362.667 48H149.333C139.449 48.056 129.986 52.0073 122.997 58.9966C116.007 65.9858 112.056 75.4492 112 85.3333V90.6667H64C59.7565 90.6667 55.6869 92.3524 52.6863 95.353C49.6857 98.3535 48 102.423 48 106.667C48 110.91 49.6857 114.98 52.6863 117.98C55.6869 120.981 59.7565 122.667 64 122.667H112V133.333H400V122.667H448C452.243 122.667 456.313 120.981 459.314 117.98C462.314 114.98 464 110.91 464 106.667C464 102.423 462.314 98.3535 459.314 95.353C456.313 92.3524 452.243 90.6667 448 90.6667Z" fill="#444444"/>
<path d="M237.865 304.001C235.115 306.132 231.682 307.187 228.209 306.968C224.737 306.749 221.463 305.27 219.003 302.81C216.542 300.349 215.064 297.076 214.845 293.603C214.626 290.131 215.681 286.698 217.812 283.947L237.865 304.001Z" fill="#444444"/>
</svg>
