<svg id="Capa_1" enable-background="new 0 0 512.007 512.007" height="512" viewBox="0 0 512.007 512.007" width="512" xmlns="http://www.w3.org/2000/svg"><g><g><g><path d="m89.875 250.766-31.386-2.71c-21.079 18.231-26.499 47.862-14.84 71.879 6.255 12.872 7.4 27.611 4.116 41.547-9.921 42.078 8.828 85.696 46.417 107.382 40.767-5.824 68.703-23.487 84.518-52.334 15.485-28.245 16.245-62.274 2.989-91.631l-6.033-13.36c-15.486-34.292-48.295-57.536-85.781-60.773z" fill="#dc8659"/><path d="m453.517 248.056-.459-.057c-35.589-4.432-70.721 11.13-91.353 40.465-25.084 35.666-23.293 83.685 4.377 117.384l51.741 63.015c37.598-21.691 56.336-65.312 46.417-107.382-3.283-13.936-2.139-28.675 4.117-41.547 11.649-23.996 6.254-53.634-14.84-71.878z" fill="#e4996d"/><path d="m248.016 22.73c-49.714 30.324-64.275 79.213-43.858 139.36 69.578 48.851 155.243 68.618 255.153 62.632-.639-114.523-95.899-206.445-211.295-201.992z" fill="#e4996d"/><path d="m188.592 34.015-107.814 88.687c-17.671 29.94-27.882 64.791-28.083 102.02 56.04.188 107.1-18.515 151.462-62.632 1.781-52.105 17.335-100.635 43.858-139.36-20.76.802-40.716 4.706-59.423 11.285z" fill="#dc8659"/><path d="m177.126 28.533-24.238-6.496c-26.417 36.805-39.714 79.629-42.089 127.462 9.579.984 19.659-2.038 27.43-9.81l54.168-54.168c18.519-18.529 10.066-50.184-15.271-56.988z" fill="#f5d34b"/><path d="m103.128 8.704 4.398 1.175c13.006 28.782 7.888 65.285-29.428 102.803l-16.687-62.26c-6.788-25.322 16.396-48.506 41.717-41.718z" fill="#f5d34b"/><path d="m107.526 9.878 45.362 12.159c-1.807 32.039-10.954 78.124-42.089 127.462-13.283-1.345-25.613-10.382-29.559-25.081-4.307-16.085-2.821-10.537-3.143-11.737 20.473-39.538 27.572-75.804 29.429-102.803z" fill="#b089ef"/><path d="m417.984 469.587c-9.885-46.093-38.971-84.95-78.064-109.651-55.84-21.574-111.787-21.119-167.835 0-39.101 24.705-68.181 63.568-78.064 109.651-3.855 17.972 9.84 34.92 28.214 34.92h267.535c18.375 0 32.07-16.948 28.214-34.92z" fill="#ff97c1"/><path d="m104.484 180.504c51.567 9.087 52.873 80.022-.201 90.112-27.642 3.968-52.305-17.917-51.587-45.894.688-26.99 25.033-48.058 51.788-44.218z" fill="#ffc0ad"/><path d="m459.31 224.722c.719 28.032-23.99 49.856-51.587 45.894-52.802-10.342-54.78-81.528-.201-90.112 26.733-3.837 51.099 17.202 51.788 44.218z" fill="#ffcebf"/><path d="m355.473 348.821h-198.94c-8.412 9.362-13.484 21.7-13.484 35.202 0 29.107 23.605 52.712 52.712 52.712 11.205 0 21.577-3.504 30.121-9.468 18.094 12.63 42.142 12.634 60.242 0 8.544 5.964 18.916 9.468 30.121 9.468 29.107 0 52.712-23.605 52.712-52.712 0-13.505-5.074-25.843-13.484-35.202z" fill="#eaf6ff"/><path d="m407.713 181.157c-.06-.221-.13-.432-.191-.653l-59.75-5.854c-52.069-5.111-91.769-48.897-91.769-101.217 0 37.793-20.717 71.13-51.846 88.657-36.732 90.417-16.525 175.404 82.005 219.053 25.912-5.004 49.57-16.329 69.311-32.322 50.804-41.158 69.916-107.625 52.24-167.664z" fill="#ffdfcf"/><path d="m204.157 162.091c-11.965 6.737-25.466 11.141-39.923 12.56l-59.75 5.854c-.06.221-.131.432-.191.653-17.675 60.036 1.433 126.504 52.24 167.664 36.655 29.695 84.03 41.129 129.629 32.322-55.743-58.527-84.69-140.466-82.005-219.053z" fill="#ffcebf"/><g fill="#fd9faa"><ellipse cx="334.699" cy="249.813" rx="29.037" ry="23.123"/><ellipse cx="177.307" cy="249.813" rx="29.037" ry="23.123"/></g></g><g><path d="m256.003 459.356c-4.143 0-7.5 3.357-7.5 7.5v7.53c0 4.143 3.357 7.5 7.5 7.5s7.5-3.357 7.5-7.5v-7.53c0-4.143-3.357-7.5-7.5-7.5z"/><path d="m462.653 246.372c2.782-6.584 4.169-13.561 4.169-20.485 0-64.394-28.914-124.478-79.266-164.747-3.233-2.585-7.954-2.061-10.542 1.173-2.587 3.235-2.061 7.955 1.173 10.542 35.985 28.779 60.152 68.416 69.405 112.398-11.499-9.573-26.042-14.012-40.134-12.287l-58.955-5.782c-48.459-4.755-85.002-45.058-85.002-93.746 0-4.143-3.357-7.5-7.5-7.5s-7.5 3.357-7.5 7.5c0 48.688-36.543 88.991-85.002 93.746-81.464 8.565-83.889 5.566-99.034 17.993 3.34-15.767 8.621-31.073 15.726-45.551 14.226 20.244 44.486 24.223 63.342 5.369l54.168-54.17c14.96-14.972 15.744-37.379 4.635-53.305 49.323-14.041 102.851-8.102 147.832 16.63 3.621 1.991 8.185.678 10.186-2.959 1.995-3.629.671-8.189-2.959-10.186-50.618-27.832-111.81-33.824-167.752-15.266-7.212-4.269-4.537-2.795-84.572-24.279-30.892-8.276-59.195 19.974-50.905 50.902 25.47 95.044 2.577 9.614 18.564 69.273-17.827 31.284-27.339 66.841-27.535 103.047 0 .024.003.047.003.071-.166 7.522 1.28 14.876 4.139 21.636-19.736 20.278-24.948 51.048-12.435 76.825 5.287 10.879 6.552 23.858 3.562 36.547-10.346 43.875 8.21 88.893 45.544 112.888-1.773 21.077 14.871 39.359 36.224 39.359h267.536c21.306 0 38.014-18.254 36.228-39.362 37.319-23.987 55.889-68.999 45.54-112.884-2.989-12.689-1.724-25.669 3.564-36.552 12.52-25.78 7.302-56.559-12.447-76.838zm-10.832-20.5c0 .005-.001.01-.001.015 0 19.511-14.934 35.831-34.407 37.534 5.681-24.428 5.815-50.248-.178-75.59 18.295 2.049 34.586 17.544 34.586 38.041zm-378.263-28.768c6.009-5.074 13.399-8.088 21.095-8.752-5.817 24.938-5.776 50.541-.042 75.079-8.005-.689-15.643-3.924-21.77-9.376-17.222-15.33-16.763-42.188.717-56.951zm12.521-83.602c15.324-30.326 24.766-61.913 28.126-94.068 6.272 1.681 16.041 4.299 30.769 8.247-2.38 28.59-11.16 69.531-37.864 113.524-18.94-5.203-19.328-24.081-21.031-27.703zm101.014-33.283c-56.307 55.552-54.284 55.999-61.758 59.496 23.235-41.549 31.699-80.027 34.348-108.092 4.773 1.279 9.923 2.659 15.496 4.153 19.732 5.299 26.385 29.964 11.914 44.443zm-87.559-64.657c-2.428 25.623-8.958 50.905-19.481 75.452-2.737-10.214-6.576-24.539-11.398-42.534-5.136-19.161 11.731-36.808 30.879-32.918zm-44.468 347.639c3.779-16.04 2.12-32.57-4.67-46.542-9.168-18.886-6.102-41.219 7.109-56.947 10.116 12.053 25.117 19.183 41.413 18.846 2.71 8.046 6.043 15.933 10.017 23.593 1.907 3.676 6.432 5.112 10.111 3.203 3.677-1.907 5.11-6.434 3.203-10.111-16.977-32.724-21.682-70.829-11.934-107.772l54.649-5.36c41.766-4.098 76.394-31.46 91.037-68.863 14.643 37.404 49.272 64.765 91.037 68.863l54.648 5.36c15.01 56.915-4.32 117.754-50.936 155.517-62.438 50.58-156.337 43.477-210.009-20.089-2.672-3.167-7.405-3.564-10.568-.893-3.165 2.672-3.564 7.403-.893 10.568 5.185 6.141 10.853 11.934 16.904 17.294-6.006 8.704-9.608 18.839-10.437 29.429-22.018 21.843-38.16 48.958-46.293 77.526-29.124-21.343-42.846-57.753-34.388-93.622zm102.83-3.866c57.246 42.083 136.694 43.761 196.213-.002 4.768 7.299 7.348 15.851 7.348 24.689 0 24.93-20.282 45.212-45.212 45.212-9.289 0-18.22-2.807-25.828-8.118-2.58-1.799-6.006-1.799-8.586 0-15.449 10.784-36.209 10.784-51.656 0-2.579-1.799-6.006-1.799-8.585 0-7.609 5.31-16.541 8.118-25.829 8.118-24.93 0-45.212-20.282-45.212-45.212 0-8.837 2.58-17.389 7.347-24.687zm231.875 137.672h-20.844v-22.621c0-4.143-3.357-7.5-7.5-7.5s-7.5 3.357-7.5 7.5v22.621h-195.848v-22.621c0-4.143-3.357-7.5-7.5-7.5s-7.5 3.357-7.5 7.5v22.621h-20.845c-13.551 0-23.747-12.482-20.87-25.891.037-.176.111-.498.15-.685 5.461-25.588 18.059-50.339 36.016-71.089 6.795 25.804 30.322 44.891 58.23 44.891 10.669 0 20.985-2.78 30.126-8.083 18.557 10.722 41.676 10.723 60.232 0 9.139 5.302 19.456 8.083 30.126 8.083 27.908 0 51.435-19.087 58.23-44.89 18.98 21.932 31.071 47.264 36.175 71.816 2.856 13.307-7.284 25.848-20.878 25.848zm71.84-180.351c-6.791 13.977-8.45 30.506-4.671 46.547 8.458 35.868-5.265 72.278-34.39 93.622-8.143-28.587-24.28-55.69-46.29-77.526-.83-10.591-4.432-20.726-10.44-29.431 22.191-19.647 38.243-44.328 47.301-71.312 15.956.309 31.128-6.606 41.386-18.837 13.207 15.729 16.27 38.057 7.104 56.937z"/><path d="m180.409 232.142c4.143 0 7.5-3.357 7.5-7.5 0-3.482 2.838-6.316 6.326-6.316 3.482 0 6.315 2.833 6.315 6.316 0 4.143 3.357 7.5 7.5 7.5s7.5-3.357 7.5-7.5c0-11.753-9.562-21.316-21.315-21.316-11.76 0-21.326 9.562-21.326 21.316 0 4.142 3.357 7.5 7.5 7.5z"/><path d="m303.955 232.142c4.143 0 7.5-3.357 7.5-7.5 0-3.482 2.833-6.316 6.315-6.316 3.488 0 6.326 2.833 6.326 6.316 0 4.143 3.357 7.5 7.5 7.5s7.5-3.357 7.5-7.5c0-11.753-9.566-21.316-21.326-21.316-11.753 0-21.315 9.562-21.315 21.316 0 4.142 3.358 7.5 7.5 7.5z"/><path d="m276.32 245.72c2.719-3.125 2.39-7.862-.735-10.581-3.123-2.719-7.86-2.389-10.581.735-4.74 5.448-13.192 5.528-18.001 0-2.72-3.126-7.458-3.452-10.581-.735-3.125 2.719-3.454 7.456-.735 10.581 10.77 12.378 29.918 12.316 40.633 0z"/></g></g></g></svg>