<svg width="512" height="512" viewBox="0 0 512 512" fill="none" xmlns="http://www.w3.org/2000/svg">
<path d="M432.426 71.4672C388.479 32.4272 314.026 43.9472 266.452 97.4938C262.671 101.66 259.179 106.079 255.999 110.72C248.626 120.582 242.666 131.424 238.292 142.934C232.747 156.525 229.503 170.944 228.692 185.6C227.602 202.332 230.528 219.082 237.226 234.454C240.333 241.424 244.35 247.952 249.172 253.867L156.372 356.054C151.053 353.32 144.959 352.485 139.101 353.688C133.243 354.891 127.971 358.059 124.159 362.667L83.6256 408.107C79.1466 413.245 76.7165 419.852 76.7989 426.667C77.2788 433.717 80.494 440.301 85.7589 445.014L100.266 457.814C105.142 462.166 111.436 464.593 117.972 464.641H119.466C122.954 464.488 126.376 463.635 129.528 462.132C132.68 460.629 135.497 458.508 137.812 455.894L178.346 410.24C180.668 407.64 182.449 404.603 183.585 401.306C184.72 398.01 185.187 394.52 184.959 391.04C184.807 386.22 183.25 381.548 180.479 377.601L272.639 274.987C287.981 284.133 305.553 288.858 323.412 288.64C342.957 288.045 362.161 283.373 379.795 274.923C397.429 266.474 413.103 254.433 425.812 239.574C447.895 215.527 461.136 184.68 463.359 152.107C464.76 137.191 462.698 122.154 457.332 108.166C451.967 94.1784 443.443 81.619 432.426 71.4672Z" fill="#444444"/>
<path opacity="0.3" d="M242.131 93.6537C240.98 95.0105 239.912 96.4353 238.931 97.9204C230.187 109.203 223.01 121.618 217.598 134.827C211.273 150.476 207.527 167.046 206.505 183.894C205.196 203.778 208.709 223.685 216.745 241.92C218.021 245.148 219.518 248.284 221.225 251.307L188.798 288.214C182.08 288.166 175.375 287.595 168.745 286.507C136.369 280.514 106.972 263.748 85.3315 238.934C63.4471 214.799 50.3655 183.975 48.2115 151.467C46.8866 136.57 49.0066 121.568 54.4075 107.622C59.8085 93.6759 68.3455 81.1592 79.3581 71.0404C122.451 32.8537 194.558 42.667 242.131 93.6537Z" fill="#444444"/>
<path opacity="0.3" d="M427.943 406.827L387.623 361.387C382.836 356.132 376.163 352.987 369.063 352.64C364.248 352.249 359.424 353.288 355.197 355.627L312.53 309.12C300.433 308.356 288.543 305.617 277.33 301.014L269.863 309.334L330.663 376.96C327.925 380.924 326.371 385.586 326.183 390.4C325.95 393.913 326.414 397.436 327.549 400.768C328.684 404.1 330.468 407.174 332.797 409.814L373.33 455.254C375.645 457.875 378.457 460.012 381.603 461.539C384.749 463.067 388.166 463.956 391.658 464.155C395.15 464.353 398.646 463.857 401.945 462.695C405.244 461.534 408.28 459.729 410.877 457.387L425.383 444.587C428.009 442.267 430.151 439.453 431.689 436.305C433.226 433.157 434.128 429.737 434.343 426.24C434.642 422.74 434.229 419.215 433.129 415.879C432.029 412.543 430.265 409.463 427.943 406.827Z" fill="#444444"/>
</svg>
