<svg width="512" height="512" viewBox="0 0 512 512" fill="none" xmlns="http://www.w3.org/2000/svg">
<path d="M432.427 79.3606C384.641 31.574 300.161 38.4006 243.841 94.5073C217.669 120.142 201.228 154.08 197.334 190.507C195.39 207.316 197.216 224.347 202.677 240.362C208.139 256.377 217.099 270.975 228.907 283.094C239.473 293.5 252.011 301.691 265.786 307.186C279.56 312.681 294.293 315.37 309.121 315.094H321.494C357.936 311.252 391.891 294.803 417.494 268.587C473.601 211.841 480.214 128.001 432.427 79.3606ZM387.201 87.0406C395.582 90.6989 403.241 95.8288 409.814 102.187C416.183 108.79 421.249 116.534 424.747 125.014L391.041 158.721L353.281 120.961L387.201 87.0406ZM349.228 79.7873L330.667 98.3473L318.081 85.334C328.135 81.9685 338.63 80.0996 349.228 79.7873ZM266.667 117.121C273.167 110.644 280.316 104.854 288.001 99.8406C288.374 100.632 288.879 101.353 289.494 101.974L308.267 120.961L270.294 158.721L251.521 139.734C250.891 139.184 250.169 138.751 249.387 138.454C254.48 130.827 260.265 123.686 266.667 117.121ZM229.334 193.281C230.09 184.775 231.881 176.393 234.667 168.321L247.467 181.334L229.121 199.681C229.334 197.547 229.121 195.627 229.334 193.281ZM274.134 275.414C265.775 271.808 258.119 266.752 251.521 260.481C245.107 253.915 240.034 246.161 236.587 237.654L270.294 203.947L308.054 241.494L274.134 275.414ZM292.907 181.334L330.667 143.574L368.427 181.334L330.667 218.881L292.907 181.334ZM318.507 282.667H312.321L330.667 264.107L343.467 277.121C335.389 279.924 327.013 281.785 318.507 282.667ZM394.881 245.334C388.371 251.736 381.222 257.455 373.547 262.401C373.048 261.812 372.619 261.168 372.268 260.481L353.281 241.494L391.041 203.947L409.814 222.721C410.476 223.224 411.191 223.654 411.947 224.001C407.002 231.676 401.283 238.824 394.881 245.334ZM426.667 194.134L413.867 181.334L432.214 162.774C432.033 173.455 430.161 184.039 426.667 194.134Z" fill="#444444"/>
<path opacity="0.3" d="M156.373 378.24C159.375 382.42 161.082 387.391 161.28 392.533C161.168 399.575 158.34 406.301 153.387 411.307L108.16 456.533C103.089 461.519 96.2845 464.348 89.1734 464.427C82.1178 464.383 75.3672 461.545 70.4001 456.533L55.2534 441.387C50.3539 436.366 47.6113 429.629 47.6113 422.613C47.6113 415.598 50.3539 408.861 55.2534 403.84L100.48 358.4C104.863 354.182 110.565 351.603 116.627 351.098C122.689 350.593 128.74 352.192 133.76 355.627L203.307 286.08C206.271 290.563 209.626 294.775 213.333 298.667C217.13 302.504 221.194 306.069 225.493 309.333L156.373 378.24Z" fill="#444444"/>
</svg>
